<svg width="419" height="308" viewBox="0 0 419 308" fill="none" xmlns="http://www.w3.org/2000/svg">
<path d="M380.909 0H38.0909C17.1409 0 0 15.4 0 34.2222V239.556C0 258.378 17.1409 273.778 38.0909 273.778H133.318V290.889C133.318 300.3 141.889 308 152.364 308H266.636C277.111 308 285.682 300.3 285.682 290.889V273.778H380.909C401.859 273.778 418.81 258.378 418.81 239.556L419 34.2222C419 25.1459 414.987 16.4414 407.843 10.0235C400.7 3.60554 391.011 0 380.909 0ZM361.864 239.556H57.1364C46.6614 239.556 38.0909 231.856 38.0909 222.444V51.3333C38.0909 41.9222 46.6614 34.2222 57.1364 34.2222H361.864C372.339 34.2222 380.909 41.9222 380.909 51.3333V222.444C380.909 231.856 372.339 239.556 361.864 239.556Z" fill="#9393A7"/>
<path d="M284 78.5C294.175 78.5 302.5 87.275 302.5 98C302.5 108.725 294.175 117.5 284 117.5C273.825 117.5 265.5 108.725 265.5 98C265.5 87.275 273.825 78.5 284 78.5ZM284 176C308.975 176 337.65 188.578 339.5 195.5H228.5C230.628 188.48 259.117 176 284 176ZM284 59C263.557 59 247 76.4525 247 98C247 119.548 263.557 137 284 137C304.443 137 321 119.548 321 98C321 76.4525 304.443 59 284 59ZM284 156.5C259.302 156.5 210 169.565 210 195.5V215H358V195.5C358 169.565 308.698 156.5 284 156.5Z" fill="#9393A7"/>
<rect x="52" y="48" width="315" height="176" rx="5" stroke="#9393A7" stroke-width="6"/>
<path d="M65.48 100.4C65.0267 100.4 64.6667 100.267 64.4 100C64.1333 99.7067 64 99.3067 64 98.8V83.16C64 79.5333 65.0133 76.7067 67.04 74.68C69.0933 72.6267 71.9333 71.6 75.56 71.6C79.16 71.6 81.9867 72.6267 84.04 74.68C86.0933 76.7333 87.12 79.56 87.12 83.16V98.8C87.12 99.3067 86.9867 99.7067 86.72 100C86.4533 100.267 86.08 100.4 85.6 100.4C85.1467 100.4 84.7733 100.267 84.48 100C84.2133 99.7067 84.08 99.3067 84.08 98.8V89.8H67V98.8C67 99.3067 66.8667 99.7067 66.6 100C66.3333 100.267 65.96 100.4 65.48 100.4ZM84.08 87.32V83.04C84.08 80.1867 83.3467 78 81.88 76.48C80.4133 74.9333 78.3067 74.16 75.56 74.16C72.7867 74.16 70.6667 74.92 69.2 76.44C67.7333 77.96 67 80.16 67 83.04V87.32H84.08ZM94.3016 100.4C93.8482 100.4 93.4882 100.267 93.2216 100C92.9816 99.7067 92.8616 99.3067 92.8616 98.8V71.24C92.8616 70.7333 92.9816 70.3467 93.2216 70.08C93.4882 69.7867 93.8482 69.64 94.3016 69.64C94.7549 69.64 95.1149 69.7867 95.3816 70.08C95.6482 70.3467 95.7816 70.7333 95.7816 71.24L95.8216 84.08C98.0616 81.36 100.928 80 104.422 80C106.582 80 108.462 80.4133 110.062 81.24C111.662 82.0667 112.888 83.2533 113.742 84.8C114.622 86.32 115.062 88.12 115.062 90.2C115.062 93.4533 114.128 95.9733 112.262 97.76C110.395 99.52 107.768 100.4 104.382 100.4C100.622 100.4 97.7549 99.0133 95.7816 96.24V98.8C95.7816 99.28 95.6482 99.6667 95.3816 99.96C95.1416 100.253 94.7816 100.4 94.3016 100.4ZM104.182 97.88C106.795 97.88 108.768 97.24 110.102 95.96C111.435 94.6533 112.102 92.7333 112.102 90.2C112.102 87.8 111.395 85.92 109.982 84.56C108.568 83.2 106.635 82.52 104.182 82.52C102.582 82.52 101.142 82.8533 99.8616 83.52C98.5816 84.16 97.5816 85.0667 96.8616 86.24C96.1416 87.4133 95.7816 88.7333 95.7816 90.2C95.7816 92.5733 96.5282 94.4533 98.0216 95.84C99.5149 97.2 101.568 97.88 104.182 97.88ZM129.307 100.4C126.987 100.4 125 99.9333 123.347 99C121.694 98.0667 120.44 96.8267 119.587 95.28C118.76 93.7067 118.347 92.0133 118.347 90.2C118.347 88.3867 118.76 86.7067 119.587 85.16C120.44 83.5867 121.694 82.3333 123.347 81.4C125 80.4667 126.987 80 129.307 80C131.627 80 133.6 80.4667 135.227 81.4C136.88 82.3333 138.12 83.5867 138.947 85.16C139.8 86.7067 140.227 88.3867 140.227 90.2C140.227 92.0133 139.8 93.7067 138.947 95.28C138.12 96.8267 136.88 98.0667 135.227 99C133.6 99.9333 131.627 100.4 129.307 100.4ZM129.307 97.88C131.707 97.88 133.627 97.2 135.067 95.84C136.534 94.48 137.267 92.6 137.267 90.2C137.267 87.8 136.534 85.92 135.067 84.56C133.627 83.2 131.707 82.52 129.307 82.52C126.88 82.52 124.934 83.2 123.467 84.56C122.027 85.92 121.307 87.8 121.307 90.2C121.307 92.6 122.027 94.48 123.467 95.84C124.934 97.2 126.88 97.88 129.307 97.88ZM153.016 100.4C150.402 100.4 148.349 99.6533 146.856 98.16C145.389 96.6667 144.656 94.5867 144.656 91.92V81.6C144.656 81.0933 144.789 80.7067 145.056 80.44C145.322 80.1467 145.682 80 146.136 80C146.589 80 146.936 80.1467 147.176 80.44C147.442 80.7067 147.576 81.0933 147.576 81.6V91.92C147.576 93.8133 148.082 95.28 149.096 96.32C150.109 97.36 151.522 97.88 153.336 97.88C154.776 97.88 156.056 97.56 157.176 96.92C158.296 96.28 159.162 95.3867 159.776 94.24C160.416 93.0933 160.736 91.7733 160.736 90.28V81.6C160.736 81.0933 160.856 80.7067 161.096 80.44C161.362 80.1467 161.736 80 162.216 80C162.669 80 163.016 80.1467 163.256 80.44C163.522 80.7067 163.656 81.0933 163.656 81.6V98.8C163.656 99.3067 163.522 99.7067 163.256 100C163.016 100.267 162.669 100.4 162.216 100.4C161.736 100.4 161.362 100.253 161.096 99.96C160.856 99.6667 160.736 99.28 160.736 98.8V96.44C159.749 97.72 158.602 98.7067 157.296 99.4C155.989 100.067 154.562 100.4 153.016 100.4ZM182.629 96.04C182.922 96.28 183.069 96.56 183.069 96.88C183.069 97.1467 182.949 97.4667 182.709 97.84C182.149 98.6133 181.375 99.24 180.389 99.72C179.402 100.173 178.389 100.4 177.349 100.4C175.589 100.4 174.202 99.88 173.189 98.84C172.175 97.8 171.669 96.3733 171.669 94.56V82.84H169.509C168.442 82.84 167.909 82.4267 167.909 81.6C167.909 81.2267 168.042 80.9333 168.309 80.72C168.602 80.5067 169.002 80.4 169.509 80.4H171.669V73.56C171.669 73.0533 171.789 72.6667 172.029 72.4C172.295 72.1067 172.669 71.96 173.149 71.96C173.602 71.96 173.949 72.1067 174.189 72.4C174.455 72.6667 174.589 73.0533 174.589 73.56V80.4H180.029C180.509 80.4 180.882 80.5067 181.149 80.72C181.442 80.9067 181.589 81.2 181.589 81.6C181.589 82.4267 181.069 82.84 180.029 82.84H174.589V94.8C174.589 96.8533 175.549 97.88 177.469 97.88C178.082 97.88 178.642 97.76 179.149 97.52C179.655 97.28 180.162 96.8933 180.669 96.36C181.069 95.9333 181.455 95.72 181.829 95.72C182.069 95.72 182.335 95.8267 182.629 96.04ZM65.48 152.4C65.0267 152.4 64.6667 152.267 64.4 152C64.1333 151.707 64 151.307 64 150.8V132.72C64 129.893 64.8 127.667 66.4 126.04C68 124.413 70.2 123.6 73 123.6C74.6267 123.6 76.12 124.027 77.48 124.88C78.8667 125.707 79.9067 126.813 80.6 128.2C81.2933 126.787 82.3067 125.667 83.64 124.84C85 124.013 86.52 123.6 88.2 123.6C91 123.6 93.2 124.413 94.8 126.04C96.4 127.64 97.2 129.867 97.2 132.72V150.8C97.2 151.307 97.0533 151.707 96.76 152C96.4933 152.267 96.1333 152.4 95.68 152.4C95.2 152.4 94.8267 152.267 94.56 152C94.32 151.707 94.2 151.307 94.2 150.8V132.72C94.2 130.613 93.72 129 92.76 127.88C91.8267 126.76 90.28 126.2 88.12 126.2C86.2267 126.2 84.7467 126.787 83.68 127.96C82.6133 129.107 82.08 130.693 82.08 132.72V150.8C82.08 151.307 81.9467 151.707 81.68 152C81.4133 152.267 81.0533 152.4 80.6 152.4C80.1467 152.4 79.7867 152.267 79.52 152C79.28 151.707 79.16 151.307 79.16 150.8V132.72C79.16 130.747 78.6 129.173 77.48 128C76.36 126.8 74.8933 126.2 73.08 126.2C70.92 126.2 69.36 126.76 68.4 127.88C67.4667 129 67 130.613 67 132.72V150.8C67 151.307 66.8667 151.707 66.6 152C66.3333 152.267 65.96 152.4 65.48 152.4ZM112.819 152.4C109.352 152.4 106.672 151.507 104.779 149.72C102.885 147.933 101.939 145.4 101.939 142.12C101.939 138.973 102.899 136.507 104.819 134.72C106.739 132.907 109.365 132 112.699 132C114.752 132 116.579 132.333 118.179 133C119.779 133.64 121.019 134.56 121.899 135.76C122.805 136.933 123.259 138.28 123.259 139.8C123.259 140.92 122.939 141.787 122.299 142.4C121.685 143.013 120.832 143.32 119.739 143.32H104.939C104.939 145.373 105.632 146.987 107.019 148.16C108.405 149.307 110.339 149.88 112.819 149.88C114.339 149.88 115.645 149.72 116.739 149.4C117.832 149.053 118.859 148.507 119.819 147.76C120.325 147.333 120.739 147.12 121.059 147.12C121.299 147.12 121.525 147.227 121.739 147.44C122.112 147.76 122.299 148.093 122.299 148.44C122.299 148.707 122.139 149 121.819 149.32C120.725 150.36 119.445 151.133 117.979 151.64C116.512 152.147 114.792 152.4 112.819 152.4ZM118.859 140.96C119.339 140.96 119.699 140.867 119.939 140.68C120.179 140.467 120.299 140.093 120.299 139.56C120.299 138.6 119.979 137.733 119.339 136.96C118.699 136.187 117.792 135.587 116.619 135.16C115.472 134.733 114.165 134.52 112.699 134.52C110.325 134.52 108.445 135.107 107.059 136.28C105.699 137.427 105.019 138.987 105.019 140.96H118.859ZM129.304 151.96C128.664 151.96 128.118 151.747 127.664 151.32C127.211 150.867 126.984 150.347 126.984 149.76C126.984 149.147 127.211 148.613 127.664 148.16C128.118 147.707 128.664 147.48 129.304 147.48C129.918 147.48 130.451 147.707 130.904 148.16C131.358 148.613 131.584 149.147 131.584 149.76C131.584 150.347 131.358 150.867 130.904 151.32C130.451 151.747 129.918 151.96 129.304 151.96ZM137.898 151.96C137.258 151.96 136.711 151.747 136.258 151.32C135.805 150.867 135.578 150.347 135.578 149.76C135.578 149.147 135.805 148.613 136.258 148.16C136.711 147.707 137.258 147.48 137.898 147.48C138.511 147.48 139.045 147.707 139.498 148.16C139.951 148.613 140.178 149.147 140.178 149.76C140.178 150.347 139.951 150.867 139.498 151.32C139.045 151.747 138.511 151.96 137.898 151.96ZM146.492 151.96C145.852 151.96 145.305 151.747 144.852 151.32C144.399 150.867 144.172 150.347 144.172 149.76C144.172 149.147 144.399 148.613 144.852 148.16C145.305 147.707 145.852 147.48 146.492 147.48C147.105 147.48 147.639 147.707 148.092 148.16C148.545 148.613 148.772 149.147 148.772 149.76C148.772 150.347 148.545 150.867 148.092 151.32C147.639 151.747 147.105 151.96 146.492 151.96Z" fill="#9393A7"/>
</svg>
