<svg width="481" height="351" viewBox="0 0 481 351" fill="none" xmlns="http://www.w3.org/2000/svg">
<rect x="5" y="5" width="471" height="341" rx="33" stroke="#9393A7" stroke-width="10"/>
<line y1="59" x2="481" y2="59" stroke="#9393A7" stroke-width="10"/>
<ellipse cx="40" cy="34.5" rx="12" ry="11.5" fill="#DB4949"/>
<ellipse cx="128" cy="34.5" rx="12" ry="11.5" fill="#4AC656"/>
<ellipse cx="84" cy="34.5" rx="12" ry="11.5" fill="#E29829"/>
<path d="M437.25 164.083L413.417 141.25M344.896 229.729L365.061 227.583C367.525 227.32 368.756 227.189 369.908 226.832C370.929 226.515 371.901 226.068 372.798 225.501C373.808 224.863 374.685 224.023 376.437 222.344L455.125 146.958C461.706 140.653 461.706 130.43 455.125 124.125C448.544 117.82 437.873 117.82 431.292 124.125L352.604 199.511C350.851 201.19 349.975 202.03 349.309 202.998C348.718 203.856 348.25 204.788 347.92 205.766C347.547 206.87 347.41 208.05 347.136 210.41L344.896 229.729Z" stroke="#9393A7" stroke-width="8" stroke-linecap="round" stroke-linejoin="round"/>
<line x1="423.099" y1="134.857" x2="445.42" y2="156.715" stroke="#9393A7" stroke-width="6"/>
<line x1="354.099" y1="200.857" x2="376.42" y2="222.715" stroke="#9393A7" stroke-width="6"/>
<path class="fill-current" d="M156.366 159.7C160.466 155 164.866 152.65 169.566 152.65C174.266 152.65 177.066 156.25 177.966 163.45V163.9C177.966 167.5 175.916 175.35 171.816 187.45L178.866 185.95C187.466 185.95 192.466 191.45 193.866 202.45V204.7C193.866 217.9 185.566 229.95 168.966 240.85C163.566 242.95 159.666 244 157.266 244C149.166 244 143.566 239.3 140.466 229.9C140.666 228.8 141.916 227.25 144.216 225.25C145.316 180.05 146.266 157.45 147.066 157.45C148.766 155.75 150.316 154.9 151.716 154.9C154.416 155.9 155.766 157.5 155.766 159.7H156.366ZM154.866 200.95H155.466C163.666 185.45 168.016 173.45 168.516 164.95V161.5H167.016C164.916 161.5 162.116 167.15 158.616 178.45C156.116 189.15 154.866 196.65 154.866 200.95ZM160.566 210.25L158.316 211.15L154.566 210.85V211.15L153.966 213.1V228.7L153.516 234.25L156.816 235.15C165.316 235.15 173.716 228.75 182.016 215.95C184.316 210.25 185.466 205.55 185.466 201.85C185.466 197.25 183.266 194.95 178.866 194.95H178.266C173.466 194.95 167.566 200.05 160.566 210.25ZM208.409 161.35C211.209 162.35 212.609 163.9 212.609 166L214.109 223.15V241.6C214.109 245 212.659 246.7 209.759 246.7H207.809C206.009 245.5 205.109 244.1 205.109 242.5V225.1L203.759 165.7C203.759 163.2 205.309 161.75 208.409 161.35ZM248.908 187.45C256.308 187.45 261.908 192.95 265.708 203.95L266.308 207.1C266.308 217.8 261.308 228.75 251.308 239.95C247.308 243.65 243.258 245.5 239.158 245.5C233.158 245.5 228.908 242.05 226.408 235.15C225.508 231.95 225.058 229.15 225.058 226.75V224.95C225.058 209.15 230.808 197.15 242.308 188.95C244.308 187.95 246.508 187.45 248.908 187.45ZM233.908 226.45C233.908 233.25 235.658 236.65 239.158 236.65C246.458 236.65 252.508 227.3 257.308 208.6V205.75C255.608 199.55 252.458 196.45 247.858 196.45C246.058 196.45 245.158 197.7 245.158 200.2C245.158 201.9 243.158 203.25 239.158 204.25C235.658 210.15 233.908 217.55 233.908 226.45ZM297.104 186.4C301.704 186.4 304.004 188.6 304.004 193C304.604 193 304.904 193.75 304.904 195.25H305.504L304.904 199.6L305.504 229.9L304.604 253.9C313.604 253.9 319.654 260.5 322.754 273.7C322.754 276.4 320.904 277.95 317.204 278.35C315.504 278.35 313.604 274.6 311.504 267.1C309.504 264.2 307.204 262.75 304.604 262.75H304.004C300.804 284.05 298.004 294.7 295.604 294.7C292.704 300 288.504 302.65 283.004 302.65C274.904 300.75 270.854 296.7 270.854 290.5V289.6C270.854 280.2 277.554 270 290.954 259L295.604 256.15L296.204 239.95V236.2H295.604C292.204 240.5 288.954 242.65 285.854 242.65H284.954C278.054 242.65 274.104 237.35 273.104 226.75V223.45C273.104 210.65 277.804 199.55 287.204 190.15C290.104 187.65 293.404 186.4 297.104 186.4ZM282.104 221.5V228.7C282.504 232 283.254 233.65 284.354 233.65H285.854C288.654 233.65 292.104 223.35 296.204 202.75V195.25C290.204 195.25 285.504 204 282.104 221.5ZM279.704 289.9C280.104 292.4 281.504 293.65 283.904 293.65C288.704 293.65 292.154 285.1 294.254 268H293.354C284.254 275.9 279.704 283.2 279.704 289.9Z" fill="#9393A7"/>
<path class="fill-current" d="M62.0547 244.849C172.351 189.38 205.208 294.89 330.035 245.925" stroke="#9393A7" stroke-width="10" stroke-linecap="round"/>
</svg>
