<svg width="623" height="617" viewBox="0 0 623 617" fill="none" xmlns="http://www.w3.org/2000/svg">
<path d="M623 231.125C623 200.806 594.965 176 560.7 176H62.3C28.035 176 0 200.806 0 231.125V561.875C0 592.194 28.035 617 62.3 617H560.7C594.965 617 623 592.194 623 561.875V231.125ZM599 215.984L311.5 367L29 215.984H599ZM599 552.84C599 565.543 588.703 575.84 576 575.84H52C39.2974 575.84 29 565.543 29 552.84V247.736L311.5 406.496L599 247.736V435.896V552.84Z" fill="#9393A7"/>
<path d="M138.5 20C138.5 11.9919 144.992 5.5 153 5.5H470C478.008 5.5 484.5 11.9919 484.5 20V282.16L311.062 372.27L138.5 278.234V20Z" fill="#F0F0F0" stroke="#9393A7" stroke-width="11"/>
<path d="M216 47C216 42.5817 219.582 39 224 39H255C259.418 39 263 42.5817 263 47C263 51.4183 259.418 55 255 55H224C219.582 55 216 51.4183 216 47Z" fill="#4F688C"/>
<path d="M216 47C216 42.5817 219.582 39 224 39H255C259.418 39 263 42.5817 263 47C263 51.4183 259.418 55 255 55H224C219.582 55 216 51.4183 216 47Z" fill="#4F688C"/>
<path d="M216 259C216 254.582 219.582 251 224 251H255C259.418 251 263 254.582 263 259C263 263.418 259.418 267 255 267H224C219.582 267 216 263.418 216 259Z" fill="#4F688C"/>
<path d="M216 259C216 254.582 219.582 251 224 251H255C259.418 251 263 254.582 263 259C263 263.418 259.418 267 255 267H224C219.582 267 216 263.418 216 259Z" fill="#4F688C"/>
<path d="M210 151C210 146.582 213.582 143 218 143H369C373.418 143 377 146.582 377 151C377 155.418 373.418 159 369 159H218C213.582 159 210 155.418 210 151Z" fill="#4F688C"/>
<path d="M210 151C210 146.582 222.727 143 238.426 143H348.574C364.273 143 377 146.582 377 151C377 155.418 364.273 159 348.574 159H238.426C222.727 159 210 155.418 210 151Z" fill="#4F688C"/>
<path d="M216 69C216 64.5817 219.582 61 224 61H313C317.418 61 321 64.5817 321 69C321 73.4183 317.418 77 313 77H224C219.582 77 216 73.4183 216 69Z" fill="#CECECE"/>
<path d="M216 69C216 64.5817 224.002 61 233.872 61H303.128C312.998 61 321 64.5817 321 69C321 73.4183 312.998 77 303.128 77H233.872C224.002 77 216 73.4183 216 69Z" fill="#CECECE"/>
<path d="M216 285C216 280.582 219.582 277 224 277H280C284.418 277 288 280.582 288 285C288 289.418 284.418 293 280 293H224C219.582 293 216 289.418 216 285Z" fill="#CECECE"/>
<path d="M216 285C216 280.582 221.487 277 228.255 277H275.745C282.513 277 288 280.582 288 285C288 289.418 282.513 293 275.745 293H228.255C221.487 293 216 289.418 216 285Z" fill="#CECECE"/>
<path d="M210 177C210 172.582 213.582 169 218 169H408C412.418 169 416 172.582 416 177C416 181.418 412.418 185 408 185H218C213.582 185 210 181.418 210 177Z" fill="#CECECE"/>
<path d="M210 177C210 172.582 225.699 169 245.064 169H380.936C400.301 169 416 172.582 416 177C416 181.418 400.301 185 380.936 185H245.064C225.699 185 210 181.418 210 177Z" fill="#CECECE"/>
<path d="M210 203C210 198.582 213.582 195 218 195H382C386.418 195 390 198.582 390 203C390 207.418 386.418 211 382 211H218C213.582 211 210 207.418 210 203Z" fill="#CECECE"/>
<path d="M210 203C210 198.582 223.717 195 240.638 195H359.362C376.283 195 390 198.582 390 203C390 207.418 376.283 211 359.362 211H240.638C223.717 211 210 207.418 210 203Z" fill="#CECECE"/>
</svg>
