<svg width="133" height="121" viewBox="0 0 133 121" fill="none" xmlns="http://www.w3.org/2000/svg">
<path d="M78.125 18.3125H50.0625V95H32.4375V18.3125H4.75V4H78.125V18.3125Z" fill="#9393A7"/>
<path d="M83.0879 7.43359H88.8398V15.793H91.7012V18H83.0879V15.793H86.0957V9.65039H83.0879V7.43359ZM85.9004 4.72852C85.9004 4.52018 85.9362 4.32812 86.0078 4.15234C86.0859 3.97005 86.1934 3.81706 86.3301 3.69336C86.4668 3.56315 86.6296 3.46224 86.8184 3.39062C87.0137 3.31901 87.2285 3.2832 87.4629 3.2832C87.9447 3.2832 88.3255 3.41992 88.6055 3.69336C88.8919 3.96029 89.0352 4.30534 89.0352 4.72852C89.0352 5.15169 88.8919 5.5 88.6055 5.77344C88.3255 6.04036 87.9447 6.17383 87.4629 6.17383C87.2285 6.17383 87.0137 6.13802 86.8184 6.06641C86.6296 5.99479 86.4668 5.89714 86.3301 5.77344C86.1934 5.64323 86.0859 5.49023 86.0078 5.31445C85.9362 5.13216 85.9004 4.93685 85.9004 4.72852ZM96.0664 7.43359L96.1445 8.71289C96.3464 8.25716 96.623 7.89909 96.9746 7.63867C97.3327 7.37174 97.7656 7.23828 98.2734 7.23828C99.1263 7.23828 99.6829 7.61263 99.9434 8.36133C100.152 8.00977 100.415 7.73633 100.734 7.54102C101.06 7.33919 101.451 7.23828 101.906 7.23828C102.225 7.23828 102.521 7.29688 102.795 7.41406C103.075 7.53125 103.316 7.72005 103.518 7.98047C103.726 8.23438 103.885 8.56641 103.996 8.97656C104.113 9.38021 104.172 9.875 104.172 10.4609V18H101.701V10.4512C101.701 10.2493 101.678 10.0833 101.633 9.95312C101.594 9.82292 101.538 9.72201 101.467 9.65039C101.395 9.57227 101.311 9.52018 101.213 9.49414C101.122 9.46159 101.027 9.44531 100.93 9.44531C100.741 9.44531 100.581 9.49089 100.451 9.58203C100.321 9.66667 100.22 9.78385 100.148 9.93359V18H97.7559V10.4414C97.7559 10.2396 97.7363 10.0736 97.6973 9.94336C97.6582 9.81315 97.6029 9.71224 97.5312 9.64062C97.4661 9.56901 97.388 9.52018 97.2969 9.49414C97.2057 9.46159 97.1081 9.44531 97.0039 9.44531C96.7956 9.44531 96.6263 9.50391 96.4961 9.62109C96.3724 9.73828 96.2747 9.89453 96.2031 10.0898V18H93.7324V7.43359H96.0664Z" fill="#9393A7"/>
<path d="M88.9668 116C88.9017 115.87 88.8464 115.72 88.8008 115.551C88.7552 115.382 88.7161 115.202 88.6836 115.014C88.5339 115.176 88.3613 115.329 88.166 115.473C87.9707 115.616 87.7526 115.743 87.5117 115.854C87.2773 115.958 87.0169 116.039 86.7305 116.098C86.444 116.163 86.1348 116.195 85.8027 116.195C85.2624 116.195 84.7643 116.117 84.3086 115.961C83.8594 115.805 83.472 115.587 83.1465 115.307C82.821 115.027 82.5671 114.695 82.3848 114.311C82.2025 113.92 82.1113 113.497 82.1113 113.041C82.1113 111.928 82.5247 111.068 83.3516 110.463C84.1849 109.851 85.4251 109.545 87.0723 109.545H88.5859V108.92C88.5859 108.412 88.4199 108.012 88.0879 107.719C87.7559 107.419 87.2773 107.27 86.6523 107.27C86.099 107.27 85.6953 107.39 85.4414 107.631C85.1875 107.865 85.0605 108.181 85.0605 108.578H82.3457C82.3457 108.129 82.4434 107.702 82.6387 107.299C82.8405 106.895 83.1302 106.54 83.5078 106.234C83.8919 105.928 84.3574 105.688 84.9043 105.512C85.4577 105.329 86.0892 105.238 86.7988 105.238C87.4368 105.238 88.0293 105.316 88.5762 105.473C89.1296 105.629 89.6081 105.86 90.0117 106.166C90.4154 106.472 90.7311 106.859 90.959 107.328C91.1868 107.79 91.3008 108.327 91.3008 108.939V113.471C91.3008 114.037 91.3366 114.506 91.4082 114.877C91.4798 115.248 91.584 115.567 91.7207 115.834V116H88.9668ZM86.3789 114.096C86.6523 114.096 86.9062 114.063 87.1406 113.998C87.375 113.933 87.5866 113.848 87.7754 113.744C87.9642 113.64 88.127 113.523 88.2637 113.393C88.4004 113.256 88.5078 113.119 88.5859 112.982V111.166H87.1992C86.776 111.166 86.4147 111.208 86.1152 111.293C85.8158 111.371 85.5716 111.485 85.3828 111.635C85.194 111.778 85.054 111.954 84.9629 112.162C84.8717 112.364 84.8262 112.585 84.8262 112.826C84.8262 113.191 84.9531 113.493 85.207 113.734C85.4674 113.975 85.8581 114.096 86.3789 114.096ZM94.0059 110.619C94.0059 109.851 94.1165 109.141 94.3379 108.49C94.5592 107.833 94.8815 107.263 95.3047 106.781C95.7344 106.299 96.2552 105.922 96.8672 105.648C97.4857 105.375 98.1921 105.238 98.9863 105.238C99.7806 105.238 100.487 105.375 101.105 105.648C101.724 105.922 102.245 106.299 102.668 106.781C103.098 107.263 103.423 107.833 103.645 108.49C103.866 109.141 103.977 109.851 103.977 110.619V110.824C103.977 111.599 103.866 112.315 103.645 112.973C103.423 113.624 103.101 114.19 102.678 114.672C102.255 115.154 101.734 115.531 101.115 115.805C100.497 116.072 99.7936 116.205 99.0059 116.205C98.2116 116.205 97.502 116.072 96.877 115.805C96.2585 115.531 95.7344 115.154 95.3047 114.672C94.8815 114.19 94.5592 113.624 94.3379 112.973C94.1165 112.315 94.0059 111.599 94.0059 110.824V110.619ZM96.7207 110.824C96.7207 111.267 96.763 111.684 96.8477 112.074C96.9323 112.458 97.0658 112.797 97.248 113.09C97.4303 113.376 97.6647 113.604 97.9512 113.773C98.2441 113.943 98.5957 114.027 99.0059 114.027C99.403 114.027 99.7448 113.943 100.031 113.773C100.318 113.604 100.549 113.376 100.725 113.09C100.907 112.797 101.04 112.458 101.125 112.074C101.21 111.684 101.252 111.267 101.252 110.824V110.619C101.252 110.189 101.21 109.783 101.125 109.398C101.04 109.014 100.907 108.676 100.725 108.383C100.549 108.09 100.318 107.859 100.031 107.689C99.7448 107.52 99.3965 107.436 98.9863 107.436C98.5827 107.436 98.2376 107.52 97.9512 107.689C97.6647 107.859 97.4303 108.09 97.248 108.383C97.0658 108.676 96.9323 109.014 96.8477 109.398C96.763 109.783 96.7207 110.189 96.7207 110.619V110.824Z" fill="#9393A7"/>
<path d="M77.75 116H59.8125V26.375H77.75V71.1875L111.125 26.375H131.5L103.188 64.1875L131.5 116H111.125L91.4375 79.75L77.75 98.0625V116Z" fill="#9393A7"/>
</svg>
