<svg width="208" height="250" viewBox="0 0 208 250" fill="none" xmlns="http://www.w3.org/2000/svg">
<path d="M0 0H134C136.761 0 139 2.23858 139 5V171C139 173.761 136.761 176 134 176H0V0Z" fill="#4F688C"/>
<rect x="23" y="43" width="93" height="14" fill="white"/>
<rect x="39" y="117" width="61" height="10" fill="white"/>
<rect x="1.5" y="1.5" width="11" height="173" fill="white" stroke="#4F688C" stroke-width="3"/>
<path d="M69 79C69 76.2386 71.2386 74 74 74H203C205.761 74 208 76.2386 208 79V245C208 247.761 205.761 250 203 250H74C71.2386 250 69 247.761 69 245V79Z" fill="#9393A7"/>
<rect x="92" y="88" width="93" height="14" fill="white"/>
<rect x="79" y="206" width="50" height="34" fill="white"/>
<rect x="79" y="167" width="50" height="32" fill="white"/>
<rect x="139" y="167" width="58" height="73" fill="white"/>
<rect x="79" y="117" width="116" height="5" fill="white"/>
<rect x="79" y="125" width="116" height="5" fill="white"/>
<rect x="79" y="133" width="116" height="5" fill="white"/>
<rect x="79" y="141" width="72" height="5" fill="white"/>
<rect x="79" y="149" width="81" height="5" fill="white"/>
<rect x="79" y="157" width="42" height="5" fill="white"/>
<path d="M184.731 198.1C183.989 193.844 181.966 190.012 179.005 187.258C176.045 184.504 172.332 182.999 168.5 183C165.473 183.001 162.504 183.943 159.919 185.725C157.333 187.506 155.229 190.057 153.837 193.1C150.587 193.492 147.581 195.231 145.396 197.982C143.211 200.732 142.001 204.301 142 208C142 216.275 147.94 223 155.25 223H183.958C190.053 223 195 217.4 195 210.5C195 203.9 190.473 198.55 184.731 198.1ZM183.958 218H155.25C150.37 218 146.417 213.525 146.417 208C146.417 202.475 150.37 198 155.25 198C160.13 198 164.083 202.475 164.083 208H168.5C168.5 201.1 164.392 195.3 158.783 193.55C161.014 190.2 164.525 188 168.5 188C175.191 188 180.646 194.175 180.646 201.75V203H183.958C187.602 203 190.583 206.375 190.583 210.5C190.583 214.625 187.602 218 183.958 218Z" fill="#9393A7"/>
<path d="M118.3 172.5H103.5L99.8 169H88.7C86.665 169 85 170.575 85 172.5V193.5C85 195.425 86.665 197 88.7 197H118.3C120.335 197 122 195.425 122 193.5V176C122 174.075 120.335 172.5 118.3 172.5ZM118.3 193.5H88.7V172.5H98.2645L100.873 174.967L101.965 176H118.3V193.5ZM103.796 183H96.1V186.5H103.796L100.854 189.283L103.481 191.75L110.9 184.768L103.481 177.75L100.873 180.217L103.796 183Z" fill="#9393A7"/>
<path d="M117.7 210H91.3C90.4248 210 89.5854 210.329 88.9665 210.915C88.3477 211.501 88 212.296 88 213.125V231.875C88 232.704 88.3477 233.499 88.9665 234.085C89.5854 234.671 90.4248 235 91.3 235H117.7C119.515 235 121 233.594 121 231.875V213.125C121 212.296 120.652 211.501 120.033 210.915C119.415 210.329 118.575 210 117.7 210ZM117.7 231.875H91.3V216.25H117.7V231.875ZM114.4 230.312H104.5V227.188H114.4V230.312ZM97.075 230.312L94.7485 228.109L99.0055 224.062L94.732 220.016L97.075 217.812L103.675 224.062L97.075 230.312Z" fill="#9393A7"/>
</svg>
